<?xml version="1.0" standalone="no"?>
<!DOCTYPE svg PUBLIC "-//W3C//DTD SVG 20010904//EN"
 "http://www.w3.org/TR/2001/REC-SVG-20010904/DTD/svg10.dtd">
<svg version="1.0" xmlns="http://www.w3.org/2000/svg"
 width="518.000000pt" height="143.000000pt" viewBox="0 0 518.000000 143.000000"
 preserveAspectRatio="xMidYMid meet">

<g transform="translate(0.000000,143.000000) scale(0.100000,-0.100000)"
fill="#000000" stroke="none">
<path d="M800 1347 c-28 -29 -67 -113 -75 -162 -12 -72 -14 -75 -48 -75 -18 0
-43 -7 -55 -16 -25 -17 -62 -84 -62 -112 0 -10 -10 -24 -22 -30 -28 -13 -170
-66 -235 -88 -27 -8 -59 -20 -73 -26 -14 -5 -50 -20 -80 -32 l-55 -21 -3 -277
c-2 -241 0 -278 14 -292 14 -14 73 -16 522 -16 478 0 509 2 549 20 24 10 52
33 63 52 20 32 21 44 17 323 -3 275 -5 293 -26 350 -28 72 -79 137 -134 172
-41 26 -41 26 -87 9 -159 -61 -156 -60 -200 -46 -28 9 -42 21 -46 36 -8 32 23
131 57 182 16 24 29 47 29 51 0 20 -31 19 -50 -2z m281 -272 c57 -30 107 -123
124 -232 l7 -43 -456 0 c-297 0 -456 3 -456 10 0 6 7 10 15 10 8 0 23 4 33 9
25 14 206 81 217 81 6 0 25 -16 43 -35 58 -59 166 -57 220 4 23 26 26 34 40
106 8 39 9 40 92 72 47 18 86 32 88 32 2 1 16 -6 33 -14z m-291 -44 c80 -59
-19 -187 -115 -147 -62 26 -81 85 -49 148 16 30 16 31 77 24 36 -3 73 -14 87
-25z m288 -290 c8 -5 12 -23 10 -47 l-3 -39 -470 0 -470 0 -3 42 c-2 33 1 42
15 46 33 8 908 7 921 -2z m130 -219 l2 -223 -24 -24 -25 -25 -508 2 -508 3 0
28 0 27 467 3 468 2 27 28 28 27 3 191 3 190 32 -3 32 -3 3 -223z m-120 35
l-3 -42 -470 0 -470 0 -3 33 c-2 19 -1 39 1 45 3 9 127 11 476 9 l472 -2 -3
-43z m0 -133 c6 -66 21 -64 -486 -62 l-457 3 -3 33 c-7 66 -39 62 475 60 l468
-3 3 -31z"/>
<path d="M1900 734 c0 -414 3 -623 10 -619 14 9 14 1245 0 1245 -7 0 -10 -215
-10 -626z"/>
<path d="M2359 1187 c20 -22 21 -32 20 -153 -2 -116 -4 -131 -23 -152 l-21
-24 117 4 c134 4 157 14 196 89 44 83 14 192 -64 236 -33 19 -54 23 -143 23
l-104 0 22 -23z m211 -22 c40 -21 63 -69 63 -131 0 -98 -50 -144 -157 -144
l-66 0 0 145 0 145 65 0 c39 0 78 -6 95 -15z"/>
<path d="M2768 1187 c20 -21 22 -34 22 -152 0 -118 -2 -131 -22 -152 l-21 -23
121 0 122 0 0 30 c0 17 -4 30 -10 30 -5 0 -10 -7 -10 -15 0 -12 -15 -15 -75
-15 l-76 0 3 63 3 62 63 3 c45 2 62 7 62 17 0 10 -17 15 -62 17 l-63 3 -3 63
-3 62 76 0 c60 0 75 -3 75 -15 0 -21 17 -19 22 3 10 39 0 42 -125 42 l-120 0
21 -23z"/>
<path d="M3128 1190 c-14 -11 -28 -33 -31 -50 -10 -48 7 -78 60 -101 93 -42
98 -46 101 -81 4 -50 -22 -70 -89 -66 -47 3 -54 6 -57 26 -5 34 -32 28 -32 -8
0 -38 23 -50 94 -50 44 0 60 5 86 26 28 24 31 31 28 78 -3 55 -3 55 -113 103
-34 15 -41 23 -43 51 -5 48 12 62 73 62 48 0 53 -2 59 -25 9 -34 26 -32 26 3
0 41 -17 52 -81 52 -41 0 -63 -5 -81 -20z"/>
<path d="M3417 1190 c-58 -46 -43 -119 30 -151 99 -44 98 -43 101 -80 4 -52
-21 -71 -89 -67 -47 3 -54 6 -57 26 -5 34 -32 28 -32 -8 0 -38 23 -50 95 -50
49 0 60 4 86 30 26 26 30 36 27 77 -3 52 -4 53 -113 100 -34 15 -41 23 -43 51
-5 48 12 62 73 62 48 0 53 -2 59 -25 9 -35 26 -31 26 5 0 37 -23 50 -88 50
-34 0 -57 -6 -75 -20z"/>
<path d="M3688 1187 c20 -22 22 -34 22 -156 0 -125 -1 -134 -22 -152 -23 -18
-22 -18 100 -19 l122 0 0 30 c0 17 -4 30 -10 30 -5 0 -10 -7 -10 -15 0 -12
-15 -15 -75 -15 l-76 0 3 63 3 62 63 3 c45 2 62 7 62 17 0 10 -17 15 -62 17
l-63 3 -3 63 -3 62 76 0 c59 0 75 -3 75 -14 0 -8 5 -18 10 -21 6 -4 10 8 10
29 l0 36 -122 0 -121 0 21 -23z"/>
<path d="M4018 1187 c20 -21 22 -34 22 -155 0 -121 -2 -132 -20 -142 -34 -18
-22 -30 30 -30 49 0 66 12 34 24 -12 4 -14 19 -12 63 3 54 5 58 29 61 21 3 35
-9 83 -73 47 -60 63 -75 85 -75 l26 1 -25 22 c-14 12 -43 44 -64 70 l-39 48
42 40 c30 29 41 48 41 70 0 73 -43 99 -166 99 l-87 0 21 -23z m181 -33 c12
-15 21 -34 21 -44 0 -28 -45 -68 -84 -75 -60 -12 -66 -4 -66 75 l0 70 54 0
c47 0 57 -4 75 -26z"/>
<path d="M4359 1203 c0 -5 -2 -16 -4 -25 -4 -24 12 -32 23 -13 6 12 20 15 53
13 l44 -3 3 -137 c2 -130 1 -138 -20 -157 l-22 -21 59 0 58 0 -20 23 c-19 20
-21 33 -19 157 l1 135 48 3 c35 2 49 -1 53 -12 10 -26 24 -18 24 14 l0 30
-140 0 c-77 0 -140 -3 -141 -7z"/>
<path d="M4756 1184 c-19 -19 -26 -37 -26 -64 0 -44 24 -69 90 -94 79 -31 98
-65 64 -114 -12 -18 -25 -22 -68 -22 -55 0 -76 12 -76 43 0 10 -4 15 -10 12
-14 -9 -13 -58 2 -73 7 -7 39 -12 73 -12 77 0 114 26 122 85 7 52 -20 87 -84
109 -57 19 -83 42 -83 71 0 35 31 55 84 55 41 0 48 -3 58 -27 l12 -28 4 34 c4
43 -8 51 -79 51 -48 0 -60 -4 -83 -26z"/>
<path d="M5020 880 c0 -15 5 -20 18 -18 9 2 17 10 17 18 0 8 -8 16 -17 18 -13
2 -18 -3 -18 -18z"/>
<path d="M2340 640 c0 -5 9 -14 19 -20 18 -9 20 -22 19 -142 0 -121 -2 -135
-21 -155 -20 -22 -20 -23 -1 -24 31 -2 79 3 84 8 3 2 -3 9 -13 14 -13 8 -17
24 -17 74 0 65 0 65 28 65 23 0 40 -13 80 -61 43 -50 50 -64 42 -80 -6 -10 -7
-19 -3 -20 4 0 24 -2 43 -4 53 -5 55 3 13 44 -21 20 -58 60 -81 89 -51 62 -52
58 47 160 l61 62 -51 0 c-45 0 -50 -2 -39 -15 15 -18 4 -36 -59 -103 -56 -60
-75 -55 -79 22 -2 46 1 62 12 68 30 17 16 28 -34 28 -27 0 -50 -4 -50 -10z"/>
<path d="M2805 638 c-88 -49 -121 -159 -75 -254 24 -49 52 -70 113 -83 60 -14
113 2 158 48 76 76 59 225 -33 281 -37 22 -129 27 -163 8z m147 -35 c75 -45
79 -206 6 -257 -14 -10 -44 -16 -81 -16 -53 0 -62 3 -92 33 -63 63 -56 187 14
234 42 28 110 31 153 6z"/>
<path d="M3148 628 c20 -23 22 -33 22 -153 0 -118 -2 -131 -22 -152 l-21 -23
51 0 c55 0 64 8 32 28 -18 11 -20 23 -20 115 0 56 5 109 10 117 12 17 8 23 85
-115 27 -49 56 -90 63 -90 8 0 39 48 70 107 31 59 62 106 67 105 6 -2 11 -53
13 -118 3 -108 2 -114 -20 -131 -23 -17 -23 -18 30 -18 50 0 68 12 37 24 -12
4 -15 31 -15 151 0 120 3 147 15 151 28 11 15 25 -21 22 -34 -3 -38 -7 -98
-118 -35 -63 -69 -116 -77 -118 -9 -1 -39 42 -79 115 -65 117 -66 118 -105
121 l-40 3 23 -23z"/>
<path d="M3802 633 c-5 -10 -33 -77 -61 -150 -29 -72 -61 -143 -71 -156 -17
-22 -18 -26 -4 -31 9 -3 25 -4 38 0 17 4 21 12 21 44 0 56 12 63 102 61 88 -2
106 -14 101 -66 -3 -33 -1 -35 43 -35 l30 0 -18 23 c-10 13 -45 92 -78 175
-45 113 -64 152 -77 152 -10 0 -21 -8 -26 -17z m63 -114 c18 -46 24 -74 18
-80 -6 -6 -34 -9 -64 -7 -62 3 -64 9 -32 93 35 95 40 94 78 -6z"/>
</g>
</svg>
