<?xml version="1.0" encoding="UTF-8"?>
<svg xmlns="http://www.w3.org/2000/svg" xmlns:xlink="http://www.w3.org/1999/xlink" width="300px" height="83px" viewBox="0 0 387 107" version="1.1">
<g id="surface1">
<path style=" stroke:none;fill-rule:nonzero;fill:rgb(0%,0%,0%);fill-opacity:1;" d="M 59.722656 6.203125 C 57.632812 8.367188 54.71875 14.644531 54.125 18.304688 C 53.226562 23.6875 53.078125 23.910156 50.539062 23.910156 C 49.195312 23.910156 47.328125 24.433594 46.433594 25.105469 C 44.566406 26.375 41.804688 31.382812 41.804688 33.476562 C 41.804688 34.222656 41.058594 35.269531 40.164062 35.714844 C 38.074219 36.6875 27.472656 40.648438 22.621094 42.292969 C 20.605469 42.890625 18.214844 43.785156 17.171875 44.234375 C 16.125 44.609375 13.4375 45.730469 11.199219 46.625 L 7.09375 48.195312 L 6.867188 68.890625 C 6.71875 86.898438 6.867188 89.664062 7.914062 90.710938 C 8.957031 91.757812 13.363281 91.90625 46.882812 91.90625 C 82.566406 91.90625 84.878906 91.757812 87.867188 90.410156 C 89.65625 89.664062 91.75 87.945312 92.570312 86.527344 C 94.0625 84.136719 94.136719 83.238281 93.839844 62.390625 C 93.613281 41.84375 93.464844 40.5 91.898438 36.238281 C 89.808594 30.859375 86 26.003906 81.894531 23.386719 C 78.832031 21.445312 78.832031 21.445312 75.398438 22.714844 C 63.53125 27.273438 63.753906 27.199219 60.46875 26.152344 C 58.378906 25.480469 57.332031 24.582031 57.035156 23.460938 C 56.4375 21.070312 58.75 13.675781 61.289062 9.863281 C 62.484375 8.070312 63.453125 6.351562 63.453125 6.050781 C 63.453125 4.558594 61.140625 4.632812 59.722656 6.203125 Z M 80.699219 26.527344 C 84.953125 28.765625 88.6875 35.714844 89.957031 43.859375 L 90.480469 47.074219 L 56.4375 47.074219 C 34.265625 47.074219 22.394531 46.851562 22.394531 46.328125 C 22.394531 45.878906 22.917969 45.578125 23.515625 45.578125 C 24.113281 45.578125 25.234375 45.28125 25.980469 44.90625 C 27.84375 43.859375 41.359375 38.855469 42.179688 38.855469 C 42.625 38.855469 44.046875 40.050781 45.390625 41.46875 C 49.71875 45.878906 57.78125 45.730469 61.8125 41.171875 C 63.53125 39.226562 63.753906 38.628906 64.796875 33.25 C 65.394531 30.335938 65.46875 30.261719 71.667969 27.871094 C 75.175781 26.527344 78.085938 25.480469 78.234375 25.480469 C 78.386719 25.40625 79.429688 25.929688 80.699219 26.527344 Z M 58.976562 29.8125 C 64.949219 34.222656 57.558594 43.785156 50.390625 40.796875 C 45.761719 38.855469 44.34375 34.445312 46.734375 29.738281 C 47.925781 27.496094 47.925781 27.421875 52.480469 27.945312 C 55.167969 28.167969 57.929688 28.992188 58.976562 29.8125 Z M 80.476562 51.484375 C 81.074219 51.855469 81.371094 53.199219 81.222656 54.996094 L 81 57.910156 L 10.824219 57.910156 L 10.601562 54.769531 C 10.453125 52.304688 10.675781 51.632812 11.71875 51.332031 C 14.183594 50.734375 79.503906 50.808594 80.476562 51.484375 Z M 90.179688 67.847656 L 90.328125 84.507812 L 88.539062 86.300781 L 86.671875 88.171875 L 48.75 88.019531 L 10.824219 87.796875 L 10.824219 83.6875 L 45.6875 83.464844 L 80.625 83.3125 L 82.640625 81.222656 L 84.730469 79.203125 L 84.953125 64.933594 L 85.179688 50.734375 L 87.566406 50.960938 L 89.957031 51.183594 Z M 81.222656 65.230469 L 81 68.371094 L 10.824219 68.371094 L 10.601562 65.902344 C 10.453125 64.484375 10.527344 62.988281 10.675781 62.542969 C 10.898438 61.867188 20.15625 61.71875 46.210938 61.867188 L 81.445312 62.019531 Z M 81.222656 75.167969 C 81.671875 80.101562 82.789062 79.949219 44.941406 79.800781 L 10.824219 79.578125 L 10.601562 77.113281 C 10.078125 72.179688 7.6875 72.480469 46.0625 72.628906 L 81 72.851562 Z M 81.222656 75.167969 "/>
<path style=" stroke:none;fill-rule:nonzero;fill:rgb(0%,0%,0%);fill-opacity:1;" d="M 141.839844 52.003906 C 141.839844 82.941406 142.0625 98.554688 142.585938 98.257812 C 143.632812 97.585938 143.632812 5.230469 142.585938 5.230469 C 142.0625 5.230469 141.839844 21.296875 141.839844 52.003906 Z M 141.839844 52.003906 "/>
<path style=" stroke:none;fill-rule:nonzero;fill:rgb(0%,0%,0%);fill-opacity:1;" d="M 176.105469 18.15625 C 177.597656 19.800781 177.671875 20.546875 177.597656 29.589844 C 177.449219 38.257812 177.300781 39.378906 175.882812 40.945312 L 174.3125 42.738281 L 183.046875 42.441406 C 193.050781 42.140625 194.769531 41.394531 197.679688 35.792969 C 200.964844 29.589844 198.726562 21.445312 192.902344 18.15625 C 190.4375 16.738281 188.871094 16.4375 182.226562 16.4375 L 174.464844 16.4375 Z M 191.859375 19.800781 C 194.84375 21.371094 196.5625 24.957031 196.5625 29.589844 C 196.5625 36.910156 192.828125 40.347656 184.839844 40.347656 L 179.914062 40.347656 L 179.914062 18.679688 L 184.765625 18.679688 C 187.675781 18.679688 190.589844 19.128906 191.859375 19.800781 Z M 191.859375 19.800781 "/>
<path style=" stroke:none;fill-rule:nonzero;fill:rgb(0%,0%,0%);fill-opacity:1;" d="M 206.640625 18.15625 C 208.132812 19.726562 208.28125 20.699219 208.28125 29.515625 C 208.28125 38.332031 208.132812 39.304688 206.640625 40.871094 L 205.070312 42.589844 L 223.210938 42.589844 L 223.210938 40.347656 C 223.210938 39.078125 222.914062 38.109375 222.464844 38.109375 C 222.09375 38.109375 221.71875 38.628906 221.71875 39.226562 C 221.71875 40.125 220.597656 40.347656 216.121094 40.347656 L 210.445312 40.347656 L 210.671875 35.640625 L 210.894531 31.007812 L 215.597656 30.785156 C 218.957031 30.636719 220.226562 30.261719 220.226562 29.515625 C 220.226562 28.765625 218.957031 28.394531 215.597656 28.246094 L 210.894531 28.019531 L 210.671875 23.3125 L 210.445312 18.679688 L 216.121094 18.679688 C 220.597656 18.679688 221.71875 18.90625 221.71875 19.800781 C 221.71875 21.371094 222.988281 21.21875 223.359375 19.578125 C 224.109375 16.664062 223.359375 16.4375 214.03125 16.4375 L 205.070312 16.4375 Z M 206.640625 18.15625 "/>
<path style=" stroke:none;fill-rule:nonzero;fill:rgb(0%,0%,0%);fill-opacity:1;" d="M 233.515625 17.933594 C 232.46875 18.753906 231.421875 20.398438 231.199219 21.667969 C 230.453125 25.253906 231.722656 27.496094 235.679688 29.214844 C 242.621094 32.355469 242.996094 32.652344 243.21875 35.269531 C 243.515625 39.003906 241.578125 40.5 236.574219 40.199219 C 233.066406 39.976562 232.542969 39.75 232.320312 38.257812 C 231.945312 35.714844 229.929688 36.164062 229.929688 38.855469 C 229.929688 41.695312 231.648438 42.589844 236.949219 42.589844 C 240.234375 42.589844 241.425781 42.21875 243.367188 40.648438 C 245.457031 38.855469 245.683594 38.332031 245.457031 34.820312 C 245.234375 30.710938 245.234375 30.710938 237.023438 27.125 C 234.484375 26.003906 233.960938 25.40625 233.8125 23.3125 C 233.4375 19.726562 234.707031 18.679688 239.261719 18.679688 C 242.84375 18.679688 243.21875 18.828125 243.667969 20.546875 C 244.339844 23.089844 245.609375 22.9375 245.609375 20.324219 C 245.609375 17.261719 244.339844 16.4375 239.5625 16.4375 C 236.5 16.4375 234.859375 16.8125 233.515625 17.933594 Z M 233.515625 17.933594 "/>
<path style=" stroke:none;fill-rule:nonzero;fill:rgb(0%,0%,0%);fill-opacity:1;" d="M 255.089844 17.933594 C 250.757812 21.371094 251.878906 26.824219 257.328125 29.214844 C 264.71875 32.503906 264.644531 32.429688 264.867188 35.195312 C 265.167969 39.078125 263.300781 40.5 258.222656 40.199219 C 254.714844 39.976562 254.191406 39.75 253.96875 38.257812 C 253.59375 35.714844 251.578125 36.164062 251.578125 38.855469 C 251.578125 41.695312 253.296875 42.589844 258.671875 42.589844 C 262.328125 42.589844 263.152344 42.292969 265.09375 40.347656 C 267.03125 38.40625 267.332031 37.660156 267.109375 34.59375 C 266.882812 30.710938 266.808594 30.636719 258.671875 27.125 C 256.132812 26.003906 255.609375 25.40625 255.460938 23.3125 C 255.089844 19.726562 256.359375 18.679688 260.910156 18.679688 C 264.496094 18.679688 264.867188 18.828125 265.316406 20.546875 C 265.988281 23.164062 267.257812 22.863281 267.257812 20.175781 C 267.257812 17.410156 265.539062 16.4375 260.6875 16.4375 C 258.148438 16.4375 256.433594 16.886719 255.089844 17.933594 Z M 255.089844 17.933594 "/>
<path style=" stroke:none;fill-rule:nonzero;fill:rgb(0%,0%,0%);fill-opacity:1;" d="M 275.320312 18.15625 C 276.8125 19.800781 276.960938 20.699219 276.960938 29.8125 C 276.960938 39.152344 276.886719 39.824219 275.320312 41.171875 C 273.601562 42.515625 273.675781 42.515625 282.785156 42.589844 L 291.890625 42.589844 L 291.890625 40.347656 C 291.890625 39.078125 291.59375 38.109375 291.144531 38.109375 C 290.773438 38.109375 290.398438 38.628906 290.398438 39.226562 C 290.398438 40.125 289.28125 40.347656 284.800781 40.347656 L 279.125 40.347656 L 279.351562 35.640625 L 279.574219 31.007812 L 284.277344 30.785156 C 287.636719 30.636719 288.90625 30.261719 288.90625 29.515625 C 288.90625 28.765625 287.636719 28.394531 284.277344 28.246094 L 279.574219 28.019531 L 279.351562 23.3125 L 279.125 18.679688 L 284.800781 18.679688 C 289.203125 18.679688 290.398438 18.90625 290.398438 19.726562 C 290.398438 20.324219 290.773438 21.070312 291.144531 21.296875 C 291.59375 21.59375 291.890625 20.699219 291.890625 19.128906 L 291.890625 16.4375 L 273.75 16.4375 Z M 275.320312 18.15625 "/>
<path style=" stroke:none;fill-rule:nonzero;fill:rgb(0%,0%,0%);fill-opacity:1;" d="M 299.953125 18.15625 C 301.449219 19.726562 301.597656 20.699219 301.597656 29.738281 C 301.597656 38.78125 301.449219 39.601562 300.105469 40.347656 C 297.566406 41.695312 298.460938 42.589844 302.34375 42.589844 C 306 42.589844 307.269531 41.695312 304.882812 40.796875 C 303.984375 40.5 303.835938 39.378906 303.984375 36.089844 C 304.210938 32.054688 304.359375 31.757812 306.152344 31.53125 C 307.71875 31.308594 308.765625 32.203125 312.347656 36.988281 C 315.855469 41.46875 317.050781 42.589844 318.691406 42.589844 L 320.632812 42.515625 L 318.765625 40.871094 C 317.722656 39.976562 315.558594 37.585938 313.988281 35.640625 L 311.078125 32.054688 L 314.214844 29.066406 C 316.453125 26.898438 317.273438 25.480469 317.273438 23.835938 C 317.273438 18.382812 314.0625 16.4375 304.882812 16.4375 L 298.386719 16.4375 Z M 313.46875 20.621094 C 314.363281 21.742188 315.035156 23.164062 315.035156 23.910156 C 315.035156 26.003906 311.675781 28.992188 308.765625 29.515625 C 304.285156 30.410156 303.835938 29.8125 303.835938 23.910156 L 303.835938 18.679688 L 307.867188 18.679688 C 311.375 18.679688 312.125 18.980469 313.46875 20.621094 Z M 313.46875 20.621094 "/>
<path style=" stroke:none;fill-rule:nonzero;fill:rgb(0%,0%,0%);fill-opacity:1;" d="M 325.410156 16.960938 C 325.410156 17.335938 325.261719 18.15625 325.113281 18.828125 C 324.8125 20.621094 326.007812 21.21875 326.828125 19.800781 C 327.277344 18.90625 328.324219 18.679688 330.785156 18.828125 L 334.070312 19.054688 L 334.296875 29.289062 C 334.445312 39.003906 334.371094 39.601562 332.800781 41.023438 L 331.160156 42.589844 L 339.894531 42.589844 L 338.402344 40.871094 C 336.984375 39.378906 336.832031 38.40625 336.984375 29.140625 L 337.058594 19.054688 L 340.640625 18.828125 C 343.253906 18.679688 344.296875 18.90625 344.597656 19.726562 C 345.34375 21.667969 346.390625 21.070312 346.390625 18.679688 L 346.390625 16.4375 L 335.9375 16.4375 C 330.1875 16.4375 325.484375 16.664062 325.410156 16.960938 Z M 325.410156 16.960938 "/>
<path style=" stroke:none;fill-rule:nonzero;fill:rgb(0%,0%,0%);fill-opacity:1;" d="M 355.046875 18.382812 C 353.628906 19.800781 353.109375 21.144531 353.109375 23.164062 C 353.109375 26.449219 354.898438 28.320312 359.828125 30.1875 C 365.722656 32.503906 367.140625 35.042969 364.605469 38.707031 C 363.707031 40.050781 362.738281 40.347656 359.527344 40.347656 C 355.421875 40.347656 353.855469 39.453125 353.855469 37.136719 C 353.855469 36.390625 353.554688 36.015625 353.109375 36.238281 C 352.0625 36.910156 352.136719 40.574219 353.257812 41.695312 C 353.78125 42.21875 356.167969 42.589844 358.707031 42.589844 C 364.453125 42.589844 367.21875 40.648438 367.8125 36.238281 C 368.335938 32.355469 366.320312 29.738281 361.542969 28.09375 C 357.289062 26.675781 355.347656 24.957031 355.347656 22.789062 C 355.347656 20.175781 357.660156 18.679688 361.617188 18.679688 C 364.679688 18.679688 365.203125 18.90625 365.949219 20.699219 L 366.84375 22.789062 L 367.140625 20.25 C 367.441406 17.035156 366.546875 16.4375 361.246094 16.4375 C 357.660156 16.4375 356.765625 16.738281 355.046875 18.382812 Z M 355.046875 18.382812 "/>
<path style=" stroke:none;fill-rule:nonzero;fill:rgb(0%,0%,0%);fill-opacity:1;" d="M 374.757812 41.097656 C 374.757812 42.21875 375.128906 42.589844 376.101562 42.441406 C 376.773438 42.292969 377.371094 41.695312 377.371094 41.097656 C 377.371094 40.5 376.773438 39.902344 376.101562 39.75 C 375.128906 39.601562 374.757812 39.976562 374.757812 41.097656 Z M 374.757812 41.097656 "/>
<path style=" stroke:none;fill-rule:nonzero;fill:rgb(0%,0%,0%);fill-opacity:1;" d="M 174.6875 59.03125 C 174.6875 59.402344 175.359375 60.074219 176.105469 60.523438 C 177.449219 61.195312 177.597656 62.167969 177.523438 71.132812 C 177.523438 80.175781 177.375 81.222656 175.957031 82.714844 C 174.464844 84.359375 174.464844 84.433594 175.882812 84.507812 C 178.195312 84.660156 181.78125 84.285156 182.152344 83.910156 C 182.375 83.761719 181.929688 83.238281 181.183594 82.863281 C 180.210938 82.265625 179.914062 81.070312 179.914062 77.335938 C 179.914062 72.480469 179.914062 72.480469 182.003906 72.480469 C 183.71875 72.480469 184.988281 73.449219 187.976562 77.035156 C 191.1875 80.773438 191.707031 81.820312 191.109375 83.015625 C 190.664062 83.761719 190.589844 84.433594 190.886719 84.507812 C 191.1875 84.507812 192.679688 84.660156 194.097656 84.808594 C 198.054688 85.179688 198.203125 84.582031 195.066406 81.519531 C 193.5 80.027344 190.738281 77.035156 189.019531 74.871094 C 185.214844 70.238281 185.140625 70.535156 192.53125 62.914062 L 197.082031 58.28125 L 193.277344 58.28125 C 189.917969 58.28125 189.542969 58.429688 190.363281 59.402344 C 191.484375 60.746094 190.664062 62.09375 185.960938 67.097656 C 181.78125 71.582031 180.359375 71.207031 180.0625 65.457031 C 179.914062 62.019531 180.136719 60.824219 180.957031 60.375 C 183.199219 59.105469 182.152344 58.28125 178.421875 58.28125 C 176.40625 58.28125 174.6875 58.582031 174.6875 59.03125 Z M 174.6875 59.03125 "/>
<path style=" stroke:none;fill-rule:nonzero;fill:rgb(0%,0%,0%);fill-opacity:1;" d="M 209.402344 59.179688 C 202.832031 62.839844 200.367188 71.058594 203.800781 78.15625 C 205.59375 81.820312 207.683594 83.386719 212.238281 84.359375 C 216.71875 85.40625 220.671875 84.210938 224.03125 80.773438 C 229.707031 75.09375 228.4375 63.960938 221.570312 59.777344 C 218.808594 58.132812 211.9375 57.757812 209.402344 59.179688 Z M 220.375 61.792969 C 225.972656 65.15625 226.273438 77.1875 220.824219 80.996094 C 219.777344 81.746094 217.539062 82.191406 214.777344 82.191406 C 210.820312 82.191406 210.148438 81.96875 207.90625 79.726562 C 203.203125 75.019531 203.726562 65.753906 208.953125 62.242188 C 212.089844 60.148438 217.164062 59.925781 220.375 61.792969 Z M 220.375 61.792969 "/>
<path style=" stroke:none;fill-rule:nonzero;fill:rgb(0%,0%,0%);fill-opacity:1;" d="M 235.007812 59.925781 C 236.5 61.644531 236.648438 62.390625 236.648438 71.359375 C 236.648438 80.175781 236.5 81.148438 235.007812 82.714844 L 233.4375 84.433594 L 237.246094 84.433594 C 241.351562 84.433594 242.023438 83.835938 239.636719 82.34375 C 238.292969 81.519531 238.140625 80.625 238.140625 73.75 C 238.140625 69.566406 238.515625 65.605469 238.890625 65.007812 C 239.785156 63.738281 239.484375 63.289062 245.234375 73.601562 C 247.25 77.261719 249.414062 80.324219 249.9375 80.324219 C 250.535156 80.324219 252.847656 76.738281 255.164062 72.328125 C 257.476562 67.921875 259.792969 64.410156 260.164062 64.484375 C 260.613281 64.632812 260.984375 68.445312 261.136719 73.300781 C 261.359375 81.371094 261.285156 81.820312 259.640625 83.089844 C 257.925781 84.359375 257.925781 84.433594 261.882812 84.433594 C 265.613281 84.433594 266.957031 83.539062 264.644531 82.640625 C 263.75 82.34375 263.523438 80.324219 263.523438 71.359375 C 263.523438 62.390625 263.75 60.375 264.644531 60.074219 C 266.734375 59.253906 265.765625 58.207031 263.078125 58.429688 C 260.539062 58.65625 260.238281 58.953125 255.761719 67.25 C 253.148438 71.957031 250.609375 75.917969 250.011719 76.066406 C 249.339844 76.140625 247.101562 72.925781 244.113281 67.472656 C 239.261719 58.730469 239.1875 58.65625 236.277344 58.429688 L 233.289062 58.207031 Z M 235.007812 59.925781 "/>
<path style=" stroke:none;fill-rule:nonzero;fill:rgb(0%,0%,0%);fill-opacity:1;" d="M 283.828125 59.550781 C 283.457031 60.300781 281.367188 65.304688 279.277344 70.761719 C 277.109375 76.140625 274.722656 81.445312 273.976562 82.417969 C 272.707031 84.0625 272.632812 84.359375 273.675781 84.734375 C 274.347656 84.957031 275.542969 85.03125 276.515625 84.734375 C 277.78125 84.433594 278.082031 83.835938 278.082031 81.445312 C 278.082031 77.261719 278.976562 76.738281 285.695312 76.886719 C 292.265625 77.035156 293.609375 77.933594 293.234375 81.820312 C 293.011719 84.285156 293.160156 84.433594 296.445312 84.433594 L 298.6875 84.433594 L 297.34375 82.714844 C 296.59375 81.746094 293.984375 75.839844 291.519531 69.640625 C 288.160156 61.195312 286.742188 58.28125 285.769531 58.28125 C 285.023438 58.28125 284.203125 58.878906 283.828125 59.550781 Z M 288.53125 68.070312 C 289.875 71.507812 290.324219 73.601562 289.875 74.046875 C 289.429688 74.496094 287.339844 74.71875 285.097656 74.570312 C 280.46875 74.347656 280.320312 73.898438 282.710938 67.621094 C 285.324219 60.523438 285.695312 60.597656 288.53125 68.070312 Z M 288.53125 68.070312 "/>
</g>
</svg>
