<?xml version="1.0" encoding="UTF-8"?>
<svg xmlns="http://www.w3.org/2000/svg" xmlns:xlink="http://www.w3.org/1999/xlink" width="150px" height="41px" viewBox="0 0 148 41" version="1.1">
<g id="surface1">
<path style=" stroke:none;fill-rule:nonzero;fill:rgb(0%,0%,0%);fill-opacity:1;" d="M 22.839844 2.375 C 22.039062 3.207031 20.925781 5.613281 20.699219 7.015625 C 20.355469 9.074219 20.296875 9.160156 19.328125 9.160156 C 18.8125 9.160156 18.101562 9.363281 17.757812 9.621094 C 17.042969 10.105469 15.988281 12.023438 15.988281 12.828125 C 15.988281 13.113281 15.703125 13.515625 15.359375 13.6875 C 14.558594 14.058594 10.507812 15.574219 8.652344 16.207031 C 7.878906 16.433594 6.964844 16.777344 6.566406 16.949219 C 6.167969 17.09375 5.140625 17.523438 4.28125 17.867188 L 2.710938 18.46875 L 2.625 26.398438 C 2.570312 33.296875 2.625 34.359375 3.027344 34.757812 C 3.425781 35.160156 5.109375 35.214844 17.929688 35.214844 C 31.574219 35.214844 32.460938 35.160156 33.601562 34.644531 C 34.289062 34.359375 35.085938 33.699219 35.402344 33.15625 C 35.972656 32.238281 36 31.894531 35.886719 23.90625 C 35.800781 16.035156 35.742188 15.519531 35.144531 13.886719 C 34.34375 11.824219 32.890625 9.964844 31.320312 8.960938 C 30.148438 8.21875 30.148438 8.21875 28.835938 8.703125 C 24.296875 10.449219 24.382812 10.421875 23.125 10.019531 C 22.324219 9.761719 21.925781 9.417969 21.8125 8.988281 C 21.582031 8.074219 22.46875 5.238281 23.4375 3.78125 C 23.894531 3.09375 24.265625 2.433594 24.265625 2.320312 C 24.265625 1.746094 23.382812 1.773438 22.839844 2.375 Z M 30.863281 10.164062 C 32.488281 11.023438 33.917969 13.6875 34.402344 16.804688 L 34.601562 18.039062 L 21.582031 18.039062 C 13.105469 18.039062 8.566406 17.953125 8.566406 17.75 C 8.566406 17.578125 8.765625 17.464844 8.992188 17.464844 C 9.222656 17.464844 9.648438 17.351562 9.933594 17.207031 C 10.648438 16.804688 15.816406 14.886719 16.128906 14.886719 C 16.300781 14.886719 16.84375 15.347656 17.359375 15.890625 C 19.015625 17.578125 22.097656 17.523438 23.640625 15.777344 C 24.296875 15.03125 24.382812 14.800781 24.78125 12.742188 C 25.007812 11.625 25.039062 11.59375 27.40625 10.679688 C 28.75 10.164062 29.863281 9.761719 29.917969 9.761719 C 29.976562 9.734375 30.375 9.933594 30.863281 10.164062 Z M 22.554688 11.425781 C 24.839844 13.113281 22.011719 16.777344 19.269531 15.632812 C 17.5 14.886719 16.957031 13.199219 17.871094 11.394531 C 18.328125 10.535156 18.328125 10.507812 20.070312 10.707031 C 21.097656 10.792969 22.15625 11.109375 22.554688 11.425781 Z M 30.777344 19.726562 C 31.003906 19.871094 31.117188 20.386719 31.0625 21.074219 L 30.976562 22.1875 L 4.140625 22.1875 L 4.054688 20.988281 C 3.996094 20.042969 4.082031 19.785156 4.480469 19.667969 C 5.425781 19.441406 30.40625 19.46875 30.777344 19.726562 Z M 34.488281 25.996094 L 34.542969 32.382812 L 33.859375 33.070312 L 33.144531 33.785156 L 18.644531 33.726562 L 4.140625 33.640625 L 4.140625 32.066406 L 17.472656 31.980469 L 30.832031 31.925781 L 31.605469 31.121094 L 32.402344 30.347656 L 32.488281 24.878906 L 32.574219 19.441406 L 34.402344 19.613281 Z M 31.0625 24.996094 L 30.976562 26.199219 L 4.140625 26.199219 L 4.054688 25.253906 C 3.996094 24.707031 4.027344 24.136719 4.082031 23.964844 C 4.167969 23.707031 7.707031 23.648438 17.671875 23.707031 L 31.148438 23.765625 Z M 31.0625 28.804688 C 31.234375 30.691406 31.660156 30.636719 17.1875 30.578125 L 4.140625 30.492188 L 4.054688 29.546875 C 3.855469 27.65625 2.941406 27.773438 17.613281 27.828125 L 30.976562 27.914062 Z M 31.0625 28.804688 "/>
<path style=" stroke:none;fill-rule:nonzero;fill:rgb(0%,0%,0%);fill-opacity:1;" d="M 54.242188 19.925781 C 54.242188 31.78125 54.328125 37.765625 54.53125 37.648438 C 54.929688 37.390625 54.929688 2.003906 54.53125 2.003906 C 54.328125 2.003906 54.242188 8.160156 54.242188 19.925781 Z M 54.242188 19.925781 "/>
<path style=" stroke:none;fill-rule:nonzero;fill:rgb(0%,0%,0%);fill-opacity:1;" d="M 67.347656 6.957031 C 67.917969 7.585938 67.949219 7.875 67.917969 11.339844 C 67.863281 14.660156 67.804688 15.089844 67.261719 15.691406 L 66.664062 16.378906 L 70.003906 16.261719 C 73.828125 16.148438 74.484375 15.863281 75.597656 13.714844 C 76.855469 11.339844 76 8.21875 73.773438 6.957031 C 72.828125 6.414062 72.230469 6.300781 69.6875 6.300781 L 66.71875 6.300781 Z M 73.371094 7.585938 C 74.515625 8.1875 75.171875 9.5625 75.171875 11.339844 C 75.171875 14.144531 73.742188 15.460938 70.6875 15.460938 L 68.804688 15.460938 L 68.804688 7.15625 L 70.660156 7.15625 C 71.773438 7.15625 72.886719 7.328125 73.371094 7.585938 Z M 73.371094 7.585938 "/>
<path style=" stroke:none;fill-rule:nonzero;fill:rgb(0%,0%,0%);fill-opacity:1;" d="M 79.023438 6.957031 C 79.59375 7.558594 79.652344 7.929688 79.652344 11.308594 C 79.652344 14.6875 79.59375 15.058594 79.023438 15.660156 L 78.425781 16.320312 L 85.363281 16.320312 L 85.363281 15.460938 C 85.363281 14.972656 85.25 14.601562 85.078125 14.601562 C 84.933594 14.601562 84.792969 14.800781 84.792969 15.03125 C 84.792969 15.375 84.363281 15.460938 82.652344 15.460938 L 80.480469 15.460938 L 80.566406 13.65625 L 80.652344 11.882812 L 82.449219 11.796875 C 83.734375 11.738281 84.21875 11.59375 84.21875 11.308594 C 84.21875 11.023438 83.734375 10.878906 82.449219 10.824219 L 80.652344 10.738281 L 80.566406 8.933594 L 80.480469 7.15625 L 82.652344 7.15625 C 84.363281 7.15625 84.792969 7.242188 84.792969 7.585938 C 84.792969 8.1875 85.277344 8.132812 85.417969 7.5 C 85.707031 6.386719 85.417969 6.300781 81.851562 6.300781 L 78.425781 6.300781 Z M 79.023438 6.957031 "/>
<path style=" stroke:none;fill-rule:nonzero;fill:rgb(0%,0%,0%);fill-opacity:1;" d="M 89.300781 6.871094 C 88.902344 7.1875 88.503906 7.816406 88.417969 8.304688 C 88.132812 9.675781 88.617188 10.535156 90.128906 11.195312 C 92.785156 12.398438 92.929688 12.511719 93.015625 13.515625 C 93.128906 14.945312 92.386719 15.519531 90.472656 15.402344 C 89.132812 15.316406 88.929688 15.230469 88.84375 14.660156 C 88.703125 13.6875 87.933594 13.859375 87.933594 14.886719 C 87.933594 15.976562 88.589844 16.320312 90.617188 16.320312 C 91.871094 16.320312 92.328125 16.175781 93.070312 15.574219 C 93.871094 14.886719 93.957031 14.6875 93.871094 13.34375 C 93.785156 11.765625 93.785156 11.765625 90.644531 10.394531 C 89.671875 9.964844 89.472656 9.734375 89.417969 8.933594 C 89.273438 7.558594 89.757812 7.15625 91.5 7.15625 C 92.871094 7.15625 93.015625 7.214844 93.183594 7.875 C 93.441406 8.847656 93.925781 8.789062 93.925781 7.789062 C 93.925781 6.613281 93.441406 6.300781 91.613281 6.300781 C 90.445312 6.300781 89.816406 6.441406 89.300781 6.871094 Z M 89.300781 6.871094 "/>
<path style=" stroke:none;fill-rule:nonzero;fill:rgb(0%,0%,0%);fill-opacity:1;" d="M 97.554688 6.871094 C 95.898438 8.1875 96.324219 10.277344 98.410156 11.195312 C 101.234375 12.453125 101.207031 12.425781 101.292969 13.484375 C 101.40625 14.972656 100.695312 15.519531 98.753906 15.402344 C 97.410156 15.316406 97.210938 15.230469 97.125 14.660156 C 96.980469 13.6875 96.210938 13.859375 96.210938 14.886719 C 96.210938 15.976562 96.867188 16.320312 98.921875 16.320312 C 100.324219 16.320312 100.636719 16.207031 101.378906 15.460938 C 102.121094 14.714844 102.234375 14.429688 102.148438 13.257812 C 102.0625 11.765625 102.035156 11.738281 98.921875 10.394531 C 97.953125 9.964844 97.753906 9.734375 97.695312 8.933594 C 97.554688 7.558594 98.039062 7.15625 99.78125 7.15625 C 101.152344 7.15625 101.292969 7.214844 101.464844 7.875 C 101.722656 8.875 102.207031 8.761719 102.207031 7.730469 C 102.207031 6.671875 101.550781 6.300781 99.695312 6.300781 C 98.722656 6.300781 98.066406 6.46875 97.554688 6.871094 Z M 97.554688 6.871094 "/>
<path style=" stroke:none;fill-rule:nonzero;fill:rgb(0%,0%,0%);fill-opacity:1;" d="M 105.289062 6.957031 C 105.859375 7.585938 105.917969 7.929688 105.917969 11.425781 C 105.917969 15.003906 105.890625 15.261719 105.289062 15.777344 C 104.632812 16.292969 104.660156 16.292969 108.144531 16.320312 L 111.628906 16.320312 L 111.628906 15.460938 C 111.628906 14.972656 111.515625 14.601562 111.34375 14.601562 C 111.199219 14.601562 111.058594 14.800781 111.058594 15.03125 C 111.058594 15.375 110.628906 15.460938 108.914062 15.460938 L 106.746094 15.460938 L 106.832031 13.65625 L 106.917969 11.882812 L 108.714844 11.796875 C 110 11.738281 110.484375 11.59375 110.484375 11.308594 C 110.484375 11.023438 110 10.878906 108.714844 10.824219 L 106.917969 10.738281 L 106.832031 8.933594 L 106.746094 7.15625 L 108.914062 7.15625 C 110.601562 7.15625 111.058594 7.242188 111.058594 7.558594 C 111.058594 7.789062 111.199219 8.074219 111.34375 8.160156 C 111.515625 8.273438 111.628906 7.929688 111.628906 7.328125 L 111.628906 6.300781 L 104.691406 6.300781 Z M 105.289062 6.957031 "/>
<path style=" stroke:none;fill-rule:nonzero;fill:rgb(0%,0%,0%);fill-opacity:1;" d="M 114.710938 6.957031 C 115.28125 7.558594 115.339844 7.929688 115.339844 11.394531 C 115.339844 14.859375 115.28125 15.175781 114.769531 15.460938 C 113.796875 15.976562 114.140625 16.320312 115.625 16.320312 C 117.023438 16.320312 117.507812 15.976562 116.59375 15.632812 C 116.253906 15.519531 116.195312 15.089844 116.253906 13.828125 C 116.339844 12.28125 116.394531 12.167969 117.082031 12.082031 C 117.679688 11.996094 118.082031 12.339844 119.449219 14.171875 C 120.792969 15.890625 121.25 16.320312 121.878906 16.320312 L 122.621094 16.292969 L 121.90625 15.660156 C 121.507812 15.316406 120.679688 14.402344 120.078125 13.65625 L 118.964844 12.28125 L 120.164062 11.136719 C 121.019531 10.308594 121.335938 9.761719 121.335938 9.132812 C 121.335938 7.042969 120.105469 6.300781 116.59375 6.300781 L 114.113281 6.300781 Z M 119.878906 7.902344 C 120.222656 8.332031 120.476562 8.875 120.476562 9.160156 C 120.476562 9.964844 119.195312 11.109375 118.082031 11.308594 C 116.367188 11.652344 116.195312 11.425781 116.195312 9.160156 L 116.195312 7.15625 L 117.738281 7.15625 C 119.078125 7.15625 119.363281 7.273438 119.878906 7.902344 Z M 119.878906 7.902344 "/>
<path style=" stroke:none;fill-rule:nonzero;fill:rgb(0%,0%,0%);fill-opacity:1;" d="M 124.445312 6.5 C 124.445312 6.640625 124.390625 6.957031 124.332031 7.214844 C 124.21875 7.902344 124.675781 8.132812 124.988281 7.585938 C 125.160156 7.242188 125.558594 7.15625 126.503906 7.214844 L 127.757812 7.300781 L 127.84375 11.222656 C 127.902344 14.945312 127.871094 15.175781 127.273438 15.71875 L 126.644531 16.320312 L 129.984375 16.320312 L 129.414062 15.660156 C 128.871094 15.089844 128.816406 14.714844 128.871094 11.167969 L 128.902344 7.300781 L 130.269531 7.214844 C 131.269531 7.15625 131.667969 7.242188 131.785156 7.558594 C 132.070312 8.304688 132.46875 8.074219 132.46875 7.15625 L 132.46875 6.300781 L 128.472656 6.300781 C 126.273438 6.300781 124.476562 6.386719 124.445312 6.5 Z M 124.445312 6.5 "/>
<path style=" stroke:none;fill-rule:nonzero;fill:rgb(0%,0%,0%);fill-opacity:1;" d="M 135.78125 7.042969 C 135.238281 7.585938 135.039062 8.101562 135.039062 8.875 C 135.039062 10.136719 135.722656 10.851562 137.609375 11.566406 C 139.863281 12.453125 140.40625 13.429688 139.433594 14.832031 C 139.09375 15.347656 138.722656 15.460938 137.492188 15.460938 C 135.921875 15.460938 135.324219 15.117188 135.324219 14.230469 C 135.324219 13.945312 135.210938 13.800781 135.039062 13.886719 C 134.640625 14.144531 134.667969 15.546875 135.09375 15.976562 C 135.296875 16.175781 136.210938 16.320312 137.179688 16.320312 C 139.378906 16.320312 140.433594 15.574219 140.664062 13.886719 C 140.863281 12.398438 140.09375 11.394531 138.265625 10.765625 C 136.636719 10.222656 135.894531 9.5625 135.894531 8.734375 C 135.894531 7.730469 136.78125 7.15625 138.292969 7.15625 C 139.464844 7.15625 139.664062 7.242188 139.949219 7.929688 L 140.292969 8.734375 L 140.40625 7.757812 C 140.519531 6.527344 140.175781 6.300781 138.152344 6.300781 C 136.78125 6.300781 136.4375 6.414062 135.78125 7.042969 Z M 135.78125 7.042969 "/>
<path style=" stroke:none;fill-rule:nonzero;fill:rgb(0%,0%,0%);fill-opacity:1;" d="M 143.316406 15.746094 C 143.316406 16.175781 143.460938 16.320312 143.832031 16.261719 C 144.089844 16.207031 144.316406 15.976562 144.316406 15.746094 C 144.316406 15.519531 144.089844 15.289062 143.832031 15.230469 C 143.460938 15.175781 143.316406 15.316406 143.316406 15.746094 Z M 143.316406 15.746094 "/>
<path style=" stroke:none;fill-rule:nonzero;fill:rgb(0%,0%,0%);fill-opacity:1;" d="M 66.804688 22.617188 C 66.804688 22.761719 67.0625 23.019531 67.347656 23.191406 C 67.863281 23.449219 67.917969 23.820312 67.890625 27.257812 C 67.890625 30.722656 67.832031 31.121094 67.289062 31.695312 C 66.71875 32.324219 66.71875 32.351562 67.261719 32.382812 C 68.148438 32.4375 69.519531 32.296875 69.660156 32.152344 C 69.746094 32.09375 69.574219 31.894531 69.289062 31.753906 C 68.917969 31.523438 68.804688 31.066406 68.804688 29.632812 C 68.804688 27.773438 68.804688 27.773438 69.601562 27.773438 C 70.261719 27.773438 70.746094 28.144531 71.886719 29.519531 C 73.113281 30.949219 73.316406 31.351562 73.085938 31.808594 C 72.914062 32.09375 72.886719 32.351562 73 32.382812 C 73.113281 32.382812 73.6875 32.4375 74.226562 32.496094 C 75.742188 32.640625 75.796875 32.410156 74.597656 31.238281 C 74 30.664062 72.945312 29.519531 72.285156 28.6875 C 70.832031 26.914062 70.800781 27.027344 73.628906 24.109375 L 75.371094 22.332031 L 73.914062 22.332031 C 72.628906 22.332031 72.488281 22.390625 72.800781 22.761719 C 73.230469 23.277344 72.914062 23.792969 71.117188 25.710938 C 69.519531 27.429688 68.976562 27.285156 68.859375 25.082031 C 68.804688 23.765625 68.890625 23.304688 69.203125 23.132812 C 70.058594 22.648438 69.660156 22.332031 68.234375 22.332031 C 67.460938 22.332031 66.804688 22.445312 66.804688 22.617188 Z M 66.804688 22.617188 "/>
<path style=" stroke:none;fill-rule:nonzero;fill:rgb(0%,0%,0%);fill-opacity:1;" d="M 80.082031 22.675781 C 77.570312 24.078125 76.625 27.226562 77.941406 29.949219 C 78.625 31.351562 79.425781 31.953125 81.164062 32.324219 C 82.878906 32.726562 84.390625 32.265625 85.675781 30.949219 C 87.847656 28.773438 87.359375 24.507812 84.734375 22.90625 C 83.679688 22.273438 81.050781 22.132812 80.082031 22.675781 Z M 84.277344 23.679688 C 86.417969 24.964844 86.53125 29.574219 84.449219 31.035156 C 84.050781 31.324219 83.191406 31.496094 82.136719 31.496094 C 80.625 31.496094 80.367188 31.410156 79.511719 30.550781 C 77.710938 28.746094 77.910156 25.195312 79.910156 23.851562 C 81.109375 23.046875 83.050781 22.960938 84.277344 23.679688 Z M 84.277344 23.679688 "/>
<path style=" stroke:none;fill-rule:nonzero;fill:rgb(0%,0%,0%);fill-opacity:1;" d="M 89.875 22.960938 C 90.445312 23.621094 90.5 23.90625 90.5 27.34375 C 90.5 30.722656 90.445312 31.09375 89.875 31.695312 L 89.273438 32.351562 L 90.730469 32.351562 C 92.300781 32.351562 92.558594 32.125 91.644531 31.550781 C 91.128906 31.238281 91.074219 30.894531 91.074219 28.257812 C 91.074219 26.65625 91.214844 25.136719 91.359375 24.910156 C 91.699219 24.421875 91.585938 24.25 93.785156 28.203125 C 94.554688 29.605469 95.382812 30.777344 95.582031 30.777344 C 95.8125 30.777344 96.695312 29.40625 97.582031 27.714844 C 98.46875 26.027344 99.351562 24.679688 99.496094 24.707031 C 99.664062 24.765625 99.808594 26.226562 99.867188 28.085938 C 99.953125 31.179688 99.921875 31.351562 99.292969 31.839844 C 98.636719 32.324219 98.636719 32.351562 100.152344 32.351562 C 101.578125 32.351562 102.09375 32.011719 101.207031 31.667969 C 100.863281 31.550781 100.78125 30.777344 100.78125 27.34375 C 100.78125 23.90625 100.863281 23.132812 101.207031 23.019531 C 102.007812 22.703125 101.636719 22.304688 100.609375 22.390625 C 99.636719 22.476562 99.523438 22.589844 97.808594 25.769531 C 96.8125 27.570312 95.839844 29.089844 95.613281 29.148438 C 95.355469 29.175781 94.5 27.945312 93.355469 25.855469 C 91.5 22.503906 91.472656 22.476562 90.359375 22.390625 L 89.21875 22.304688 Z M 89.875 22.960938 "/>
<path style=" stroke:none;fill-rule:nonzero;fill:rgb(0%,0%,0%);fill-opacity:1;" d="M 108.542969 22.820312 C 108.402344 23.105469 107.601562 25.023438 106.804688 27.113281 C 105.976562 29.175781 105.0625 31.207031 104.777344 31.582031 C 104.289062 32.210938 104.261719 32.324219 104.660156 32.46875 C 104.917969 32.554688 105.375 32.582031 105.746094 32.46875 C 106.230469 32.351562 106.347656 32.125 106.347656 31.207031 C 106.347656 29.605469 106.6875 29.40625 109.257812 29.460938 C 111.769531 29.519531 112.285156 29.863281 112.140625 31.351562 C 112.054688 32.296875 112.113281 32.351562 113.371094 32.351562 L 114.226562 32.351562 L 113.710938 31.695312 C 113.425781 31.324219 112.425781 29.0625 111.484375 26.683594 C 110.199219 23.449219 109.65625 22.332031 109.285156 22.332031 C 109 22.332031 108.6875 22.5625 108.542969 22.820312 Z M 110.34375 26.082031 C 110.855469 27.398438 111.027344 28.203125 110.855469 28.375 C 110.6875 28.546875 109.886719 28.632812 109.03125 28.574219 C 107.261719 28.488281 107.203125 28.316406 108.117188 25.910156 C 109.117188 23.191406 109.257812 23.21875 110.34375 26.082031 Z M 110.34375 26.082031 "/>
</g>
</svg>
